<?xml version="1.0" encoding="UTF-8"?>
<svg width="315px" height="315px" viewBox="0 0 315 315" version="1.1" xmlns="http://www.w3.org/2000/svg" xmlns:xlink="http://www.w3.org/1999/xlink">
    <title>wpjo-logo-icon</title>
    <g id="wpjo-logo-icon" stroke="none" stroke-width="1" fill="none" fill-rule="evenodd">
        <g id="logo-(1)" transform="translate(0.000000, -0.001260)" fill-rule="nonzero">
            <g id="Group-18">
                <g id="path30" fill="#6CFAE4">
                    <path d="M160.104438,0.00015750063 C245.889701,0.015750063 315,1.5750063 315,157.50063 C315,315.00126 244.486482,315.00126 157.499834,315.00126 L154.895231,315.001103 C69.1099738,314.98551 0,313.426254 0,157.50063 C0,0 70.5131862,0 157.499834,0 Z" id="path-3"></path>
                </g>
                <g id="path42" transform="translate(80.000000, 112.001260) rotate(180.000000) translate(-80.000000, -112.001260) translate(57.000000, 82.001260)" fill="#000000">
                    <path d="M33.4679895,45.4002336 C33.5099512,45.3610858 33.7471602,45.1273787 33.7854815,45.0805585 C34.4110769,44.1990426 34.1663953,42.5300439 33.9425988,41.4234767 C33.7381545,40.4605171 33.4043761,39.6413622 33.0541194,39.2563752 C32.2091345,34.432922 28.4496224,28.3467036 23.1444206,28.0693241 C18.9756371,27.8503713 13.7819502,33.0989428 12.9503778,39.2563752 C12.6016539,39.6429361 12.3021729,40.2616302 12.1076922,41.2190813 C11.8792972,42.3248619 11.4715585,44.2006163 12.0986867,45.0805585 C12.1862509,45.2111826 12.293359,45.3164297 12.4092809,45.4002336 C11.203501,50.0354229 12.1996634,52.4791168 12.3539066,52.8641038 C14.4885951,58.3001526 19.1155098,61.5690999 25.6690284,59.2377347 C27.8874489,58.4476951 30.3448027,57.4471613 32.111032,55.4545534 C35.3750494,51.779963 34.0646522,47.6916639 33.4679895,45.4002336 L33.4679895,45.4002336 Z M42.0724643,2.88341932 C33.0721302,-0.961139774 12.9325584,-0.961139774 3.93509844,2.88341932 C3.21140054,3.1954221 -0.122974799,6.48284177 0.00350467829,9.41293365 C0.184649502,13.6501127 0.415918598,18.3032036 3.89179537,23.7998431 C3.89179537,23.7998431 4.88278441,25.237692 7.23590431,26.1951433 C7.23590431,26.1951433 12.3449011,27.8503713 14.6928477,29.6423218 C14.6928477,29.6423218 15.7840469,28.7985764 15.769868,28.858577 C15.7721673,28.8339865 15.6524132,21.4261824 15.6524132,21.4261824 L22.0988237,3.09706059 C22.2404209,2.69362089 22.6004496,2.43003164 23.0022485,2.43003164 C23.4027062,2.43003164 23.7619685,2.69362089 23.9041405,3.09706059 L30.3522755,21.4261824 L30.2338626,28.858577 L31.3057097,29.6423218 C33.659596,27.8503713 38.7672514,26.1951433 38.7672514,26.1951433 C41.1219043,25.237692 42.1113605,23.7998431 42.1113605,23.7998431 C45.5886361,18.3032036 45.8147318,13.6501127 45.9965663,9.41293365 C46.1214939,6.48284177 42.8005691,3.1954221 42.0724643,2.88341932 Z M23.3210818,22.0669095 L25.6167198,19.7085933 L23.2545943,4.4472104 C23.2335176,4.31349772 23.1266012,4.21899197 23.0037814,4.21899197 C22.8780875,4.21899197 22.7725123,4.31349772 22.7516272,4.4472104 L20.390843,19.7085933 L22.6849481,22.0669095 L20.1281504,26.2305534 C21.0578254,25.8876651 22.0030204,25.6940896 22.940168,25.6940896 L23.2319848,25.7017618 C24.1474808,25.7387457 25.0164165,25.9108784 25.838217,26.1689791 L23.3210818,22.0669095 Z" id="path-1"></path>
                </g>
            </g>
        </g>
        <g id="WP-Job-Openings" transform="translate(52.418000, 173.488000)" fill="#000000" fill-rule="nonzero">
            <polygon id="Path" points="28.158 17.86 32.528 0.57 38.684 0.57 31.35 27.512 25.156 27.512 19.418 9.652 13.642 27.512 7.334 27.512 0 0.57 6.384 0.57 10.83 17.822 16.416 0.57 22.572 0.57"></polygon>
            <path d="M46.7892973,12.654 L50.2852973,12.654 C51.4252973,12.654 52.349964,12.3436667 53.0592973,11.723 C53.7686306,11.1023333 54.1232973,10.2726667 54.1232973,9.234 C54.1232973,8.17 53.774964,7.32766667 53.0782973,6.707 C52.3816306,6.08633333 51.4506306,5.776 50.2852973,5.776 L46.7892973,5.776 L46.7892973,12.654 Z M50.8932973,17.822 L46.7512973,17.822 L46.7512973,27.512 L40.7472973,27.512 L40.7472973,0.57 L50.8932973,0.57 C53.6292973,0.57 55.8522973,1.38066667 57.5622973,3.002 C59.2722973,4.62333333 60.1272973,6.688 60.1272973,9.196 C60.1272973,11.7546667 59.2722973,13.832 57.5622973,15.428 C55.8522973,17.024 53.6292973,17.822 50.8932973,17.822 Z" id="Shape"></path>
            <path d="M68.7378919,19.19 L68.7378919,17.404 L74.4378919,16.416 L74.4378919,18.886 C74.4378919,20.026 74.7482252,20.8936667 75.3688919,21.489 C75.9895586,22.0843333 76.7685586,22.382 77.7058919,22.382 C78.6685586,22.382 79.4348919,22.059 80.0048919,21.413 C80.5748919,20.767 80.8598919,19.9373333 80.8598919,18.924 L80.8598919,0.57 L86.8638919,0.57 L86.8638919,19.076 C86.8638919,21.584 86.0025586,23.712 84.2798919,25.46 C82.5572252,27.208 80.3785586,28.082 77.7438919,28.082 C75.0585586,28.082 72.8862252,27.265 71.2268919,25.631 C69.5675586,23.997 68.7378919,21.85 68.7378919,19.19 Z" id="Path"></path>
            <path d="M98.2371892,7.98 C96.6918559,9.37333333 95.9191892,11.3873333 95.9191892,14.022 C95.9191892,16.6566667 96.6981892,18.6706667 98.2561892,20.064 C99.8141892,21.4573333 101.631856,22.154 103.709189,22.154 C105.786523,22.154 107.597856,21.4573333 109.143189,20.064 C110.688523,18.6706667 111.461189,16.6566667 111.461189,14.022 C111.461189,11.3873333 110.688523,9.367 109.143189,7.961 C107.597856,6.555 105.786523,5.852 103.709189,5.852 C101.631856,5.852 99.8078559,6.56133333 98.2371892,7.98 Z M89.6871892,14.06 C89.6871892,9.88 91.0488559,6.49166667 93.7721892,3.895 C96.4955225,1.29833333 99.8078559,0 103.709189,0 C107.610523,0 110.916523,1.30466667 113.627189,3.914 C116.337856,6.52333333 117.693189,9.90533333 117.693189,14.06 C117.693189,18.2146667 116.337856,21.5903333 113.627189,24.187 C110.916523,26.7836667 107.610523,28.082 103.709189,28.082 C99.8078559,28.082 96.4955225,26.7836667 93.7721892,24.187 C91.0488559,21.5903333 89.6871892,18.2146667 89.6871892,14.06 Z" id="Shape"></path>
            <path d="M120.744486,0.57 L130.814486,0.57 C133.42382,0.57 135.47582,1.24133333 136.970486,2.584 C138.465153,3.92666667 139.212486,5.662 139.212486,7.79 C139.212486,9.13266667 138.83882,10.336 138.091486,11.4 C137.344153,12.464 136.400486,13.186 135.260486,13.566 C136.57782,13.87 137.705153,14.5856667 138.642486,15.713 C139.57982,16.8403333 140.048486,18.2273333 140.048486,19.874 C140.048486,22.1033333 139.269486,23.9336667 137.711486,25.365 C136.153486,26.7963333 134.120486,27.512 131.612486,27.512 L120.744486,27.512 L120.744486,0.57 Z M126.596486,11.362 L129.864486,11.362 C130.928486,11.362 131.77082,11.1023333 132.391486,10.583 C133.012153,10.0636667 133.322486,9.348 133.322486,8.436 C133.322486,7.54933333 133.018486,6.84633333 132.410486,6.327 C131.802486,5.80766667 130.928486,5.548 129.788486,5.548 L126.596486,5.548 L126.596486,11.362 Z M126.596486,22.61 L130.358486,22.61 C131.52382,22.61 132.43582,22.325 133.094486,21.755 C133.753153,21.185 134.082486,20.4186667 134.082486,19.456 C134.082486,18.5186667 133.753153,17.7586667 133.094486,17.176 C132.43582,16.5933333 131.52382,16.302 130.358486,16.302 L126.596486,16.302 L126.596486,22.61 Z" id="Shape"></path>
            <path d="M9.5,49.98 C7.95466667,51.3733333 7.182,53.3873333 7.182,56.022 C7.182,58.6566667 7.961,60.6706667 9.519,62.064 C11.077,63.4573333 12.8946667,64.154 14.972,64.154 C17.0493333,64.154 18.8606667,63.4573333 20.406,62.064 C21.9513333,60.6706667 22.724,58.6566667 22.724,56.022 C22.724,53.3873333 21.9513333,51.367 20.406,49.961 C18.8606667,48.555 17.0493333,47.852 14.972,47.852 C12.8946667,47.852 11.0706667,48.5613333 9.5,49.98 Z M0.95,56.06 C0.95,51.88 2.31166667,48.4916667 5.035,45.895 C7.75833333,43.2983333 11.0706667,42 14.972,42 C18.8733333,42 22.1793333,43.3046667 24.89,45.914 C27.6006667,48.5233333 28.956,51.9053333 28.956,56.06 C28.956,60.2146667 27.6006667,63.5903333 24.89,66.187 C22.1793333,68.7836667 18.8733333,70.082 14.972,70.082 C11.0706667,70.082 7.75833333,68.7836667 5.035,66.187 C2.31166667,63.5903333 0.95,60.2146667 0.95,56.06 Z" id="Shape"></path>
            <path d="M38.0492973,54.654 L41.5452973,54.654 C42.6852973,54.654 43.609964,54.3436667 44.3192973,53.723 C45.0286306,53.1023333 45.3832973,52.2726667 45.3832973,51.234 C45.3832973,50.17 45.034964,49.3276667 44.3382973,48.707 C43.6416306,48.0863333 42.7106306,47.776 41.5452973,47.776 L38.0492973,47.776 L38.0492973,54.654 Z M42.1532973,59.822 L38.0112973,59.822 L38.0112973,69.512 L32.0072973,69.512 L32.0072973,42.57 L42.1532973,42.57 C44.8892973,42.57 47.1122973,43.3806667 48.8222973,45.002 C50.5322973,46.6233333 51.3872973,48.688 51.3872973,51.196 C51.3872973,53.7546667 50.5322973,55.832 48.8222973,57.428 C47.1122973,59.024 44.8892973,59.822 42.1532973,59.822 Z" id="Shape"></path>
            <polygon id="Path" points="70.9685946 69.512 53.8685946 69.512 53.8685946 42.57 70.9305946 42.57 70.9305946 48.232 59.8725946 48.232 59.8725946 53.362 69.9045946 53.362 69.9045946 58.644 59.8725946 58.644 59.8725946 63.812 70.9685946 63.812"></polygon>
            <polygon id="Path" points="98.1878919 69.512 91.8418919 69.512 80.7458919 51.804 80.7458919 69.512 74.7798919 69.512 74.7798919 42.57 82.0758919 42.57 92.1838919 58.948 92.1838919 42.57 98.1878919 42.57"></polygon>
            <polygon id="Path" points="108.839189 69.512 102.759189 69.512 102.759189 42.57 108.839189 42.57"></polygon>
            <polygon id="Path" points="136.818486 69.512 130.472486 69.512 119.376486 51.804 119.376486 69.512 113.410486 69.512 113.410486 42.57 120.706486 42.57 130.814486 58.948 130.814486 42.57 136.818486 42.57"></polygon>
            <path d="M166.279784,69.512 L161.415784,69.512 L161.035784,66.776 C160.377117,67.7133333 159.401784,68.4986667 158.109784,69.132 C156.817784,69.7653333 155.27245,70.082 153.473784,70.082 C149.623117,70.082 146.386784,68.7836667 143.764784,66.187 C141.142784,63.5903333 139.831784,60.2146667 139.831784,56.06 C139.831784,51.9306667 141.19345,48.555 143.916784,45.933 C146.640117,43.311 149.95245,42 153.853784,42 C157.349784,42 160.123784,42.8233333 162.175784,44.47 C164.227784,46.1166667 165.60845,48.0673333 166.317784,50.322 L160.541784,52.336 C160.263117,51.196 159.572784,50.1256667 158.470784,49.125 C157.368784,48.1243333 155.829784,47.624 153.853784,47.624 C151.77645,47.624 149.93345,48.3396667 148.324784,49.771 C146.716117,51.2023333 145.911784,53.2986667 145.911784,56.06 C145.911784,58.7453333 146.68445,60.8416667 148.229784,62.349 C149.775117,63.8563333 151.70045,64.61 154.005784,64.61 C155.981784,64.61 157.527117,64.135 158.641784,63.185 C159.75645,62.235 160.427784,61.2406667 160.655784,60.202 L152.561784,60.202 L152.561784,55.11 L166.279784,55.11 L166.279784,69.512 Z" id="Path"></path>
            <path d="M188.635081,49.182 L183.239081,50.702 C183.112414,49.866 182.694414,49.0933333 181.985081,48.384 C181.275748,47.6746667 180.199081,47.32 178.755081,47.32 C177.665748,47.32 176.779081,47.605 176.095081,48.175 C175.411081,48.745 175.069081,49.4226667 175.069081,50.208 C175.069081,51.6013333 175.955748,52.4626667 177.729081,52.792 L181.339081,53.476 C183.821748,53.932 185.740748,54.901 187.096081,56.383 C188.451414,57.865 189.129081,59.594 189.129081,61.57 C189.129081,63.8246667 188.229748,65.807 186.431081,67.517 C184.632414,69.227 182.213081,70.082 179.173081,70.082 C175.778414,70.082 173.150081,69.2016667 171.288081,67.441 C169.426081,65.6803333 168.381081,63.6853333 168.153081,61.456 L173.663081,60.126 C173.789748,61.4686667 174.315414,62.577 175.240081,63.451 C176.164748,64.325 177.501081,64.762 179.249081,64.762 C180.414414,64.762 181.339081,64.5023333 182.023081,63.983 C182.707081,63.4636667 183.049081,62.786 183.049081,61.95 C183.049081,61.266 182.795748,60.6896667 182.289081,60.221 C181.782414,59.7523333 181.073081,59.4293333 180.161081,59.252 L176.475081,58.568 C174.195081,58.1373333 172.402748,57.2126667 171.098081,55.794 C169.793414,54.3753333 169.141081,52.6653333 169.141081,50.664 C169.141081,48.1813333 170.091081,46.1166667 171.991081,44.47 C173.891081,42.8233333 176.158414,42 178.793081,42 C180.389081,42 181.814081,42.2216667 183.068081,42.665 C184.322081,43.1083333 185.316414,43.6973333 186.051081,44.432 C186.785748,45.1666667 187.362081,45.9266667 187.780081,46.712 C188.198081,47.4973333 188.483081,48.3206667 188.635081,49.182 Z" id="Path"></path>
        </g>
    </g>
</svg>